<svg width="56" height="56" viewBox="0 0 56 56" fill="none" xmlns="http://www.w3.org/2000/svg">
<path d="M37.334 3.4165C38.0143 3.41675 38.584 3.98613 38.584 4.6665V8.76221L39.0371 8.8042C42.0937 9.08721 44.3094 10.1332 45.8184 11.7349C47.3306 13.3402 48.1815 15.556 48.4082 18.2651L48.4102 18.2769C48.4453 18.608 48.1468 18.9595 47.7402 18.9595H8.25977C7.88199 18.9592 7.56702 18.6307 7.59277 18.2573L7.5918 18.2563C7.81956 15.5511 8.67101 13.3385 10.1816 11.7349C11.6906 10.133 13.9062 9.08723 16.9629 8.8042L17.417 8.76221V4.6665C17.417 3.98598 17.9865 3.4165 18.667 3.4165C19.3475 3.41657 19.917 3.98602 19.917 4.6665V8.6665H36.084V4.6665C36.084 3.98598 36.6535 3.4165 37.334 3.4165Z" fill="#1570EF" stroke="#1570EF"/>
<path opacity="0.4" d="M9.33301 23.4365H46.6572L46.8457 23.4492C47.7736 23.5596 48.4999 24.3504 48.5 25.293V29.3535C48.4998 30.4773 47.5077 31.3274 46.4219 31.1465L46.4111 31.1445L45.9053 31.0781C45.3938 31.0174 44.8653 30.9766 44.333 30.9766C36.9871 30.9767 31.0002 36.9637 31 44.3096C31 45.474 31.4473 47.0403 31.8877 48.3848V48.3857L31.8896 48.3906C32.2927 49.582 31.4151 50.8096 30.1465 50.8096H18.667C14.6793 50.8096 11.9128 49.6731 10.1377 47.7617C8.35644 45.8434 7.50006 43.0667 7.5 39.6436V25.2695L7.50977 25.083C7.60435 24.1626 8.38901 23.4367 9.33301 23.4365Z" fill="#1570EF" stroke="#1570EF"/>
<path d="M44.333 35.5C49.2134 35.5 53.1668 39.4526 53.167 44.333C53.167 45.8858 52.7589 47.3595 52.0361 48.627L51.8877 48.8779L51.8838 48.8848C50.3606 51.4454 47.5568 53.167 44.333 53.167C41.1094 53.1669 38.3064 51.4452 36.7832 48.8848L36.7793 48.8779L36.6299 48.627C35.9072 47.3596 35.5 45.8857 35.5 44.333C35.5002 39.4527 39.4527 35.5002 44.333 35.5ZM49.6221 40.5156C48.7836 39.6173 47.3484 39.5531 46.4434 40.3965L43.0635 43.5234L42.2832 42.7432C41.4113 41.8714 39.9754 41.8715 39.1035 42.7432C38.2316 43.6151 38.2316 45.0519 39.1035 45.9238L41.4131 48.2334C41.8617 48.682 42.4343 48.8935 43.0029 48.8936C43.5444 48.8936 44.11 48.6847 44.5322 48.293L44.5332 48.2939L49.5029 43.6973L49.5107 43.6895C50.3977 42.8321 50.47 41.4242 49.6221 40.5156Z" fill="#1570EF" stroke="#1570EF"/>
<path d="M18.5352 31.3584C18.9548 30.9422 19.5977 30.7422 20.1963 30.8691L20.2178 30.873C20.3038 30.8874 20.3963 30.9169 20.4961 30.9668L20.5283 30.9824L20.5615 30.9941C20.651 31.024 20.7481 31.0711 20.8525 31.1396C20.9491 31.2169 21.0469 31.2957 21.1436 31.373C21.471 31.7279 21.6669 32.204 21.667 32.666C21.667 33.128 21.4708 33.6041 21.1436 33.959C21.0449 34.0379 20.9515 34.1132 20.8525 34.1924C20.748 34.2611 20.6511 34.309 20.5615 34.3389L20.5283 34.3496L20.4961 34.3662C20.3974 34.4155 20.3058 34.4445 20.2207 34.459C20.0517 34.4831 19.9287 34.5 19.833 34.5C19.3668 34.4999 18.8861 34.3006 18.5303 33.9678C18.1984 33.612 18 33.1316 18 32.666C18.0001 32.1979 18.2 31.7146 18.5352 31.3584Z" fill="#1570EF" stroke="#1570EF"/>
<path d="M26.6997 31.3604C27.3944 30.693 28.6329 30.7001 29.2974 31.3574C29.633 31.7137 29.8334 32.1976 29.8335 32.666C29.8335 33.132 29.6346 33.6129 29.3022 33.9688C28.9464 34.3012 28.4655 34.5 27.9995 34.5C27.5333 34.4999 27.0526 34.3006 26.6968 33.9678C26.3649 33.612 26.1665 33.1316 26.1665 32.666C26.1666 32.1988 26.3656 31.7164 26.6997 31.3604Z" fill="#1570EF" stroke="#1570EF"/>
<path d="M19.1455 39.145C19.8138 38.8563 20.6184 39.0172 21.1299 39.5229C21.4663 39.8795 21.667 40.3644 21.667 40.8335C21.6669 41.2995 21.4673 41.7795 21.1348 42.1353C20.779 42.4675 20.2988 42.6665 19.833 42.6665C19.3669 42.6664 18.8861 42.4679 18.5303 42.1353C18.1982 41.7795 18.0001 41.2992 18 40.8335C18 40.3685 18.1972 39.8883 18.5283 39.5327C18.7241 39.3587 18.9022 39.2389 19.126 39.1528L19.1357 39.1499L19.1455 39.145Z" fill="#1570EF" stroke="#1570EF"/>
</svg>
