<svg width="56" height="56" viewBox="0 0 56 56" fill="none" xmlns="http://www.w3.org/2000/svg">
<path opacity="0.4" d="M27.9995 5.1665C40.6099 5.1665 50.8333 15.3892 50.8335 27.9995C50.8335 40.61 40.61 50.8335 27.9995 50.8335C15.3892 50.8333 5.1665 40.6099 5.1665 27.9995C5.16668 15.3893 15.3893 5.16668 27.9995 5.1665Z" fill="#1570EF" stroke="#1570EF"/>
<path d="M27.9995 10.4165C37.6866 10.4165 45.5833 18.3125 45.5835 27.9995C45.5835 37.6867 37.6867 45.5835 27.9995 45.5835C18.3125 45.5833 10.4165 37.6866 10.4165 27.9995C10.4167 27.3191 10.9861 26.7495 11.6665 26.7495C12.3469 26.7495 12.9163 27.3191 12.9165 27.9995C12.9165 36.3255 19.6735 43.0833 27.9995 43.0835C36.3257 43.0835 43.0835 36.3257 43.0835 27.9995C43.0833 19.6735 36.3255 12.9165 27.9995 12.9165C27.3191 12.9163 26.7495 12.3469 26.7495 11.6665C26.7495 10.9861 27.3191 10.4167 27.9995 10.4165Z" fill="#1570EF" stroke="#1570EF"/>
<path d="M28 17.4165C33.8371 17.4165 38.5828 22.1625 38.583 27.9995C38.583 33.8367 33.8372 38.5835 28 38.5835C27.3196 38.5835 26.7502 38.0139 26.75 37.3335C26.75 36.653 27.3195 36.0835 28 36.0835C32.4528 36.0835 36.083 32.4523 36.083 27.9995C36.0828 23.5469 32.4527 19.9165 28 19.9165C27.3195 19.9165 26.75 19.347 26.75 18.6665C26.75 17.986 27.3195 17.4165 28 17.4165Z" fill="#1570EF" stroke="#1570EF"/>
</svg>
