<svg width="56" height="56" viewBox="0 0 56 56" fill="none" xmlns="http://www.w3.org/2000/svg">
<path opacity="0.4" d="M17.1968 8.6665H38.8032C44.8037 8.6665 49.6665 13.5293 49.6665 19.5298V36.9136C49.6664 37.142 49.5949 37.3611 49.3931 37.563L49.3921 37.564C46.0081 40.9713 39.9894 47.037 36.5356 50.5142L36.5239 50.5259C36.3274 50.7376 36.07 50.8335 35.7935 50.8335H17.1968C11.1964 50.8335 6.3337 45.9705 6.3335 39.9702V19.5298C6.33352 13.5293 11.1963 8.66653 17.1968 8.6665Z" fill="#1570EF" stroke="#1570EF"/>
<path d="M19.3433 5.1665C20.0428 5.1665 20.5933 5.73162 20.5933 6.4165V12.9028C20.5933 13.6154 20.0385 14.1763 19.3433 14.1763C18.6437 14.1763 18.0933 13.6111 18.0933 12.9263V6.4165C18.0933 5.73162 18.6437 5.1665 19.3433 5.1665Z" fill="#1570EF" stroke="#1570EF"/>
<path d="M36.6567 5.1665C37.3563 5.1665 37.9067 5.73162 37.9067 6.4165V12.9028C37.9067 13.6154 37.352 14.1763 36.6567 14.1763C35.9572 14.1763 35.4067 13.6111 35.4067 12.9263V6.4165C35.4067 5.71698 35.9719 5.1665 36.6567 5.1665Z" fill="#1570EF" stroke="#1570EF"/>
<path d="M17.1733 26.6567H34.4868C35.1863 26.6568 35.7368 27.2219 35.7368 27.9067C35.7368 28.5916 35.1863 29.1567 34.4868 29.1567H17.1733C16.4738 29.1567 15.9233 28.5916 15.9233 27.9067C15.9233 27.2262 16.4928 26.6567 17.1733 26.6567Z" fill="#1570EF" stroke="#1570EF"/>
<path d="M17.1733 35.3135H28.0005C28.6998 35.3137 29.2505 35.8788 29.2505 36.5635C29.2505 37.2482 28.6998 37.8132 28.0005 37.8135H17.1733C16.4738 37.8135 15.9233 37.2484 15.9233 36.5635C15.9233 35.864 16.4885 35.3135 17.1733 35.3135Z" fill="#1570EF" stroke="#1570EF"/>
<path d="M48.6499 35.9199C49.2636 35.9199 49.6664 36.3988 49.6665 36.9131C49.6665 37.1416 49.595 37.3615 49.3931 37.5635L49.3921 37.5645C46.008 40.9719 39.9894 47.0376 36.5356 50.5146L36.5239 50.5264C36.3274 50.738 36.07 50.833 35.7935 50.833C35.2637 50.833 34.7769 50.4157 34.7769 49.8398V41.6729C34.7771 38.5568 37.4324 35.9434 40.7173 35.9434H40.7222C42.9355 35.9201 46.0123 35.9199 48.6499 35.9199Z" fill="#1570EF" stroke="#1570EF"/>
</svg>
