<svg width="48" height="48" viewBox="0 0 48 48" fill="none" xmlns="http://www.w3.org/2000/svg">
<path opacity="0.4" d="M14.2231 1.1665H33.7769C37.9239 1.16657 41.1737 2.40121 43.3862 4.61377C45.5987 6.82639 46.8335 10.076 46.8335 14.2231V33.7769C46.8334 37.9239 45.5988 41.1737 43.3862 43.3862C41.1737 45.5988 37.9239 46.8334 33.7769 46.8335H14.2231C10.076 46.8335 6.82639 45.5987 4.61377 43.3862C2.40121 41.1737 1.16657 37.9239 1.1665 33.7769V14.2231C1.16651 10.0759 2.40115 6.82639 4.61377 4.61377C6.82639 2.40115 10.0759 1.16651 14.2231 1.1665Z" fill="#1570EF" stroke="#1570EF"/>
<path d="M24.7231 15.4468H36.9731C37.6727 15.4468 38.2231 16.0119 38.2231 16.6968C38.2231 17.3817 37.6727 17.9468 36.9731 17.9468H24.7231C24.0426 17.9468 23.4731 17.3773 23.4731 16.6968C23.4731 16.0587 23.9738 15.5186 24.5972 15.4536L24.7231 15.4468Z" fill="#1570EF" stroke="#1570EF"/>
<path d="M17.1436 12.314C17.6207 11.8368 18.4025 11.8274 18.9121 12.3169C19.3906 12.7986 19.3896 13.5992 18.9092 14.0796L13.6592 19.3296C13.4079 19.5809 13.0942 19.6968 12.7764 19.6968C12.4477 19.6968 12.1222 19.5747 11.9053 19.3423L11.8994 19.3364L11.8936 19.3296L10.1436 17.5796L10.1367 17.5737C9.6405 17.0937 9.64048 16.2999 10.1367 15.8198H10.1377L10.1436 15.814C10.5917 15.3658 11.3086 15.3301 11.8164 15.7329L11.915 15.8198L12.4229 16.3267L12.7764 16.6802L13.1299 16.3267L17.1436 12.314Z" fill="#1570EF" stroke="#1570EF"/>
<path d="M24.7231 31.7798H36.9731C37.6727 31.7798 38.2231 32.3449 38.2231 33.0298C38.2231 33.7147 37.6727 34.2798 36.9731 34.2798H24.7231C24.0426 34.2798 23.4731 33.7103 23.4731 33.0298C23.4731 32.3917 23.9738 31.8516 24.5972 31.7866L24.7231 31.7798Z" fill="#1570EF" stroke="#1570EF"/>
<path d="M17.1436 28.647C17.6207 28.1698 18.4025 28.1604 18.9121 28.6499C19.3906 29.1316 19.3896 29.9322 18.9092 30.4126L13.6592 35.6626C13.4079 35.9139 13.0942 36.0298 12.7764 36.0298C12.4477 36.0298 12.1222 35.9077 11.9053 35.6753L11.8994 35.6694L11.8936 35.6626L10.1436 33.9126L10.1367 33.9067C9.6405 33.4267 9.64048 32.6329 10.1367 32.1528H10.1377L10.1436 32.147C10.5917 31.6988 11.3086 31.6631 11.8164 32.0659L11.915 32.1528L12.4229 32.6597L12.7764 33.0132L13.1299 32.6597L17.1436 28.647Z" fill="#1570EF" stroke="#1570EF"/>
</svg>
